<?xml version="1.0" encoding="iso-8859-1"?>
<!-- Uploaded to: SVG Repo, www.svgrepo.com, Generator: SVG Repo Mixer Tools -->
<svg version="1.1" id="Layer_1" xmlns="http://www.w3.org/2000/svg" xmlns:xlink="http://www.w3.org/1999/xlink" 
	 viewBox="0 0 512 512" xml:space="preserve">
<path style="fill:#FA004B;" d="M168.001,255.916v-37.812c0-18.881,15.306-34.187,34.187-34.187h107.624
	c18.881,0,34.187,15.306,34.187,34.187v37.812"/>
<g>
	<rect x="168.229" y="207.851" style="fill:#FFFFFF;" width="24.033" height="15.673"/>
	<rect x="319.739" y="207.851" style="fill:#FFFFFF;" width="24.033" height="15.673"/>
</g>
<rect x="199.576" y="207.851" style="fill:#36C9A3;" width="16.718" height="15.673"/>
<rect x="223.608" y="207.851" style="fill:#FFFFFF;" width="16.718" height="15.673"/>
<rect x="247.641" y="207.851" style="fill:#36C9A3;" width="16.718" height="15.673"/>
<rect x="271.673" y="207.851" style="fill:#FFFFFF;" width="16.718" height="15.673"/>
<g>
	<rect x="295.706" y="207.851" style="fill:#36C9A3;" width="16.718" height="15.673"/>
	<path style="fill:#36C9A3;" d="M120.001,351.915v-58.492c0-20.714,16.793-37.507,37.507-37.507h204.984
		c20.714,0,37.507,16.793,37.507,37.507v58.492"/>
</g>
<path style="fill:#FFFFFF;" d="M399.998,303.916H120.001v-13.142c0-19.251,15.607-34.858,34.858-34.858h210.28
	c19.251,0,34.858,15.607,34.858,34.858v13.142H399.998z"/>
<path style="fill:#FA004B;" d="M80.003,503.913V388.915c0-20.435,16.566-37,37-37h285.995c20.435,0,37,16.566,37,37v114.998"/>
<g>
	<path style="fill:#FAEDD6;" d="M439.997,391.915l-8-8l-32,15.999l-32-15.999l-32,15.999l-32-15.999l-32,15.999l-32-15.999
		l-32,15.999l-32-15.999l-32,15.999l-32-15.999l-32,15.999v-8c0-22.091,17.909-40,40-40h279.996
		C422.09,351.915,439.997,369.824,439.997,391.915L439.997,391.915z"/>
	<path style="fill:#FAEDD6;" d="M318.793,19.636c-15.621-15.621-40.947-15.621-56.568,0l-5.741,5.741l-5.741-5.741
		c-15.621-15.621-40.946-15.621-56.568,0c-15.621,15.62-15.621,40.946,0,56.568L256,143.918l62.793-67.715
		C334.414,60.582,334.414,35.256,318.793,19.636z"/>
</g>
<g>
	<rect x="104.49" y="408.471" style="fill:#36C9A3;" width="15.673" height="15.673"/>
	<rect x="168.229" y="408.471" style="fill:#36C9A3;" width="15.673" height="15.673"/>
	<rect x="231.967" y="408.471" style="fill:#36C9A3;" width="15.673" height="15.673"/>
	<rect x="295.706" y="408.471" style="fill:#36C9A3;" width="16.718" height="15.673"/>
	<rect x="360.49" y="408.471" style="fill:#36C9A3;" width="15.673" height="15.673"/>
	<rect x="424.229" y="408.471" style="fill:#36C9A3;" width="15.673" height="15.673"/>
</g>
<g>
	<path style="fill:#FA004B;" d="M179.897,295.088c-3.261-3.261-8.548-3.261-11.809,0l-0.173,0.173
		c-3.261-3.261-8.548-3.261-11.809,0c-3.261,3.261-3.261,8.548,0,11.809l11.809,11.809l11.983-11.983
		C183.158,303.636,183.158,298.349,179.897,295.088z"/>
	<path style="fill:#FA004B;" d="M363.895,295.088c-3.261-3.261-8.548-3.261-11.809,0l-0.173,0.173
		c-3.261-3.261-8.548-3.261-11.809,0c-3.261,3.261-3.261,8.548,0,11.809l11.809,11.809l11.983-11.983
		C367.156,303.636,367.156,298.349,363.895,295.088z"/>
	<path style="fill:#FA004B;" d="M267.896,295.088c-3.261-3.261-8.548-3.261-11.809,0l-0.173,0.173
		c-3.261-3.261-8.548-3.261-11.809,0c-3.261,3.261-3.261,8.548,0,11.809l11.809,11.809l11.983-11.983
		C271.157,303.636,271.157,298.349,267.896,295.088z"/>
</g>
<g>
	<rect x="192.261" y="295.623" style="fill:#232323;" width="39.706" height="15.673"/>
	<rect x="280.033" y="295.623" style="fill:#232323;" width="48.065" height="15.673"/>
	<path style="fill:#232323;" d="M447.835,496.243V388.916c0-24.723-20.113-44.837-44.837-44.837H117.002
		c-24.723,0-44.837,20.114-44.837,44.837v107.327H0v15.673h512v-15.673H447.835z M117.002,359.752h285.996
		c11.631,0,21.689,6.845,26.367,16.717l-29.367,14.683l-31.999-16l-32,16l-32-16l-31.999,16l-32-16l-31.999,16l-32-16l-32,16
		l-31.999-16l-24.11,12.055C88.781,371.92,101.495,359.752,117.002,359.752z M432.161,496.243H87.838v-91.485l24.163-12.081
		l31.999,15.999l32-15.999l32,15.999l31.999-15.999l32,15.999l31.999-15.999l32,15.999l32-15.999l31.999,15.999l30.454-15.226
		l1.711,1.71L432.161,496.243L432.161,496.243z"/>
	<path style="fill:#232323;" d="M127.839,311.296h16.357v-15.673h-16.357v-2.2c0-16.36,13.309-29.67,29.67-29.67h204.984
		c16.36,0,29.67,13.31,29.67,29.67v2.2h-15.999v15.673h15.998v24.62h15.673v-42.493c0-25.002-20.341-45.343-45.343-45.343H157.508
		c-25.002,0-45.343,20.341-45.343,45.343v42.493h15.673v-24.62H127.839z"/>
	<path style="fill:#232323;" d="M175.838,218.105c0-14.529,11.821-26.35,26.35-26.35h107.624c14.529,0,26.35,11.821,26.35,26.35
		v21.812h15.673v-21.812c0-23.172-18.852-42.024-42.024-42.024H202.188c-23.172,0-42.024,18.852-42.024,42.024v21.812h15.673
		V218.105z"/>
	<path style="fill:#232323;" d="M247.641,146.386v21.76h15.673v-20.589l61.129-65.921c8.966-9.023,13.903-20.99,13.903-33.717
		c0-12.778-4.977-24.79-14.011-33.825c-9.036-9.035-21.048-14.011-33.827-14.011c-12.778,0-24.79,4.976-33.825,14.011l-0.197,0.199
		l-0.199-0.199c-9.036-9.035-21.048-14.011-33.826-14.011s-24.79,4.976-33.825,14.011c-18.607,18.606-18.649,48.856-0.131,67.519
		L247.641,146.386z M199.72,25.177c6.074-6.075,14.151-9.421,22.742-9.421s16.667,3.346,22.743,9.421l11.282,11.281l11.282-11.282
		c6.074-6.075,14.151-9.421,22.742-9.421s16.667,3.346,22.742,9.421h0.001c6.074,6.075,9.421,14.151,9.421,22.742
		s-3.346,16.668-9.422,22.743l-57.206,61.682l-56.08-61.424l-0.246-0.258C187.179,58.122,187.179,37.718,199.72,25.177z"/>
</g>
<rect x="63.739" y="15.59" style="fill:#FA004B;" width="16.718" height="15.673"/>
<rect y="32.308" style="fill:#FAEDD6;" width="15.673" height="15.673"/>
<rect x="39.706" y="255.916" style="fill:#36C9A3;" width="16.718" height="15.673"/>
<rect x="400.196" y="128.439" style="fill:#FA004B;" width="15.673" height="15.673"/>
<rect x="479.608" y="80.374" style="fill:#36C9A3;" width="16.718" height="15.673"/>
<g>
	<rect x="367.804" y="32.308" style="fill:#FAEDD6;" width="15.673" height="15.673"/>
	<rect x="496.327" y="8.276" style="fill:#FAEDD6;" width="15.673" height="15.673"/>
</g>
<rect x="455.576" y="231.884" style="fill:#36C9A3;" width="16.718" height="15.673"/>
<rect x="32.392" y="159.786" style="fill:#FAEDD6;" width="15.673" height="15.673"/>
<rect x="96.131" y="135.753" style="fill:#FA004B;" width="15.673" height="15.673"/>
<g>
	<rect x="175.543" y="144.112" style="fill:#36C9A3;" width="16.718" height="15.673"/>
	<path style="fill:#36C9A3;" d="M46.523,140.265l-13.04-8.694l9.724-14.586c1.572-2.357,1.258-5.522-0.745-7.525
		c-7.267-7.267-8.405-18.75-2.703-27.301l9.725-14.586l13.04,8.694l-9.725,14.586c-1.572,2.357-1.258,5.522,0.745,7.524
		c7.268,7.268,8.404,18.751,2.703,27.302L46.523,140.265z"/>
</g>
<path style="fill:#FAEDD6;" d="M126.523,92.266l-13.04-8.694l9.724-14.586c1.572-2.357,1.258-5.522-0.745-7.525
	c-7.267-7.267-8.405-18.75-2.703-27.301l9.725-14.586l13.04,8.694l-9.725,14.586c-1.572,2.357-1.258,5.522,0.745,7.524
	c7.268,7.268,8.404,18.751,2.703,27.302L126.523,92.266z"/>
<path style="fill:#FA004B;" d="M110.522,244.264l-13.04-8.694l9.725-14.586c1.572-2.357,1.257-5.522-0.746-7.525
	c-7.267-7.267-8.405-18.75-2.703-27.301l9.725-14.586l13.04,8.694l-9.725,14.586c-1.572,2.357-1.258,5.522,0.745,7.524
	c7.268,7.269,8.405,18.751,2.704,27.302L110.522,244.264z"/>
<path style="fill:#FAEDD6;" d="M438.519,228.264l-13.04-8.694l9.724-14.586c1.572-2.357,1.258-5.522-0.745-7.525
	c-7.267-7.267-8.404-18.75-2.703-27.302l9.725-14.586l13.04,8.694l-9.725,14.586c-1.572,2.357-1.258,5.522,0.746,7.525
	c7.267,7.268,8.403,18.75,2.702,27.301L438.519,228.264z"/>
<path style="fill:#36C9A3;" d="M358.519,148.266l-13.04-8.694l9.724-14.586c1.572-2.357,1.258-5.522-0.745-7.525
	c-7.267-7.267-8.405-18.75-2.703-27.301l9.725-14.586l13.04,8.694l-9.725,14.586c-1.572,2.357-1.258,5.522,0.745,7.524
	c7.268,7.268,8.404,18.751,2.703,27.302L358.519,148.266z"/>
<path style="fill:#FA004B;" d="M430.519,100.266l-13.04-8.694l9.725-14.586c1.572-2.357,1.257-5.522-0.746-7.525
	c-7.267-7.267-8.405-18.75-2.703-27.301l9.725-14.586l13.04,8.694l-9.725,14.586c-1.572,2.357-1.258,5.522,0.745,7.524
	c7.268,7.269,8.405,18.751,2.704,27.302L430.519,100.266z"/>
</svg>