<?xml version="1.0" encoding="UTF-8"?>
<svg version="1.1" xmlns="http://www.w3.org/2000/svg" width="512" height="512">
<path d="M0 0 C15.59452902 14.43206764 19.26048981 34.15174244 21.38671875 54.34765625 C25.05655174 88.35144548 35.04970151 111.77248809 59.796875 135.6328125 C63.12222636 138.86014674 66.19420714 142.23805468 69.21166992 145.75292969 C71.25539642 148.12522035 73.3920764 150.40542234 75.52734375 152.6953125 C81.30959614 159.04082844 86.60013465 165.72590159 91.77734375 172.5703125 C92.45023438 173.45847656 93.123125 174.34664062 93.81640625 175.26171875 C103.14735097 188.06607681 109.58073037 202.44229805 107.77734375 218.5703125 C105.98755628 227.55121033 102.6038687 234.5434734 96.77734375 241.5703125 C96.30039062 242.17101562 95.8234375 242.77171875 95.33203125 243.390625 C90.56322699 248.75865073 84.30399339 252.14309747 78.234375 255.8359375 C47.65473947 274.3247391 47.65473947 274.3247391 26.46484375 302.3203125 C24.5630219 311.31074307 25.2132884 319.53500378 29.77734375 327.5703125 C34.02896888 333.95254887 38.87080571 338.82828773 45.08984375 343.29296875 C45.64671875 343.71449219 46.20359375 344.13601563 46.77734375 344.5703125 C46.77734375 344.9003125 46.77734375 345.2303125 46.77734375 345.5703125 C37.9688431 345.40091826 30.82766242 341.24584519 24.37109375 335.38671875 C16.38477976 326.78951134 13.1791062 318.27961127 13.4375 306.5625 C14.01233456 296.57802926 19.77559901 288.21810537 25.77734375 280.5703125 C26.32648438 279.83296875 26.875625 279.095625 27.44140625 278.3359375 C36.39881633 267.20822982 49.8735263 260.4207142 62.02734375 253.3828125 C63.06415283 252.78154541 64.10096191 252.18027832 65.16918945 251.56079102 C66.17554443 250.97740967 67.18189941 250.39402832 68.21875 249.79296875 C69.18055176 249.23496582 70.14235352 248.67696289 71.13330078 248.10205078 C72.73372946 247.1748957 74.33580369 246.25056236 75.94091797 245.33154297 C84.31097587 240.49195225 88.563531 235.91084951 91.37109375 226.6015625 C94.66090287 210.15251692 87.54907557 192.76484695 78.62890625 179.3359375 C69.77921805 167.28154494 58.93470175 156.88378677 47.26171875 147.59375 C39.64753882 141.39226383 33.99950319 134.42218078 28.625 126.29296875 C26.90041237 123.56802258 26.90041237 123.56802258 24.77734375 121.5703125 C23.93171875 122.5396875 23.08609375 123.5090625 22.21484375 124.5078125 C19.7845994 126.91518396 18.66848135 127.60530399 15.27734375 128.6953125 C10.27143971 128.51653021 7.68987828 126.59357271 4.29296875 123 C0.77734375 118.91160463 0.77734375 118.91160463 0.77734375 117.5703125 C1.46441406 117.46074219 2.15148437 117.35117187 2.859375 117.23828125 C3.76042969 117.07972656 4.66148437 116.92117188 5.58984375 116.7578125 C6.48316406 116.60699219 7.37648438 116.45617187 8.296875 116.30078125 C10.99413004 115.5064715 11.92294564 114.60291103 13.77734375 112.5703125 C14.43734375 112.5703125 15.09734375 112.5703125 15.77734375 112.5703125 C18.71284082 106.52664206 16.66022177 102.08622896 14.80957031 95.98413086 C10.51278916 81.6950537 7.54900119 67.12363973 5.2878418 52.37817383 C2.65690043 35.3016494 -5.34548704 22.00351271 -19.22265625 11.5703125 C-22.77850513 9.50902351 -26.35091408 7.93951701 -30.22265625 6.5703125 C-31.26099609 6.20292969 -31.26099609 6.20292969 -32.3203125 5.828125 C-48.58430682 1.25289731 -66.21403674 5.34607063 -80.74609375 13.04296875 C-83.79059528 14.92057143 -85.95619034 16.81817533 -88.22265625 19.5703125 C-87.65933594 19.81652344 -87.09601563 20.06273437 -86.515625 20.31640625 C-81.81744803 22.88559672 -78.10924146 26.93168451 -74.22265625 30.5703125 C-73.49820313 31.22902344 -72.77375 31.88773438 -72.02734375 32.56640625 C-56.96839006 46.81962256 -43.35136531 66.23232828 -38.22265625 86.5703125 C-38.55265625 87.2303125 -38.88265625 87.8903125 -39.22265625 88.5703125 C-39.69723267 87.79337036 -39.69723267 87.79337036 -40.18139648 87.00073242 C-46.31783465 76.99974774 -52.39493884 67.3481333 -60.22265625 58.5703125 C-60.99609375 57.70019531 -61.76953125 56.83007812 -62.56640625 55.93359375 C-64.09285151 54.23160728 -65.6263787 52.53593739 -67.16796875 50.84765625 C-68.92831423 48.8965509 -70.61449948 46.91017706 -72.28515625 44.8828125 C-75.58131349 41.02236748 -79.33920753 37.82537146 -83.22265625 34.5703125 C-84.87528736 33.18251943 -86.52709151 31.79376784 -88.17749023 30.40332031 C-89.30491005 29.45461647 -90.43452145 28.50850894 -91.56665039 27.56542969 C-94.95424786 24.72345438 -98.28619098 21.88743068 -101.22265625 18.5703125 C-101.29289296 14.63705652 -100.70443026 12.36042187 -98.66015625 9.0078125 C-74.61700643 -15.03533732 -27.36785005 -21.84181496 0 0 Z " fill="#000000" transform="translate(207.22265625,140.4296875)"/>
<path d="M0 0 C8.26263625 7.23135985 16.10342397 16.98508548 19.0625 27.75 C18.87430582 30.72526032 18.47189033 32.24370611 16.59375 34.56640625 C10.81184941 39.53661695 4.691117 43.89963193 -1.55883789 48.25170898 C-19.54926947 60.81353229 -35.6057037 75.05363505 -41.9375 96.75 C-42.2675 96.75 -42.5975 96.75 -42.9375 96.75 C-42.40178481 90.45846114 -41.33769904 84.84972764 -39.3125 78.875 C-38.91708008 77.70263794 -38.91708008 77.70263794 -38.51367188 76.5065918 C-36.19659854 69.94403779 -33.15249061 64.30876056 -28.9375 58.75 C-28.24914062 57.80833984 -28.24914062 57.80833984 -27.546875 56.84765625 C-23.15941266 51.28768242 -17.48529534 47.08685524 -11.9375 42.75 C-11.38513672 42.316875 -10.83277344 41.88375 -10.26367188 41.4375 C-4.61120785 37.01327332 1.05050879 32.67711533 7.0625 28.75 C5.01974801 21.25990935 -1.23101755 16.97748932 -7.5625 13.125 C-24.63216591 3.6442142 -44.01614631 -1.41699794 -63.375 2.9375 C-77.64875815 7.12992896 -88.87254938 15.38971299 -96.41015625 28.265625 C-103.40796631 41.56758466 -103.49928279 55.82213421 -102.3125 70.5 C-102.25545898 71.33813232 -102.19841797 72.17626465 -102.13964844 73.03979492 C-100.98609339 85.02952849 -94.8216988 95.18415411 -88.8125 105.375 C-88.15016357 106.51235596 -87.48782715 107.64971191 -86.80541992 108.8215332 C-83.47037669 114.53683088 -80.06634386 120.20483962 -76.56787109 125.8215332 C-66.12021208 142.59623877 -56.90057378 159.85911865 -50.9375 178.75 C-50.71594238 179.42546875 -50.49438477 180.1009375 -50.26611328 180.796875 C-45.46233442 195.75668901 -44.1682497 213.19611185 -50.9375 227.75 C-52.62646356 230.79013441 -54.54253145 233.2342326 -56.9375 235.75 C-57.5665625 236.41902344 -58.195625 237.08804688 -58.84375 237.77734375 C-66.49173553 245.22335783 -75.660956 250.60768432 -84.63769531 256.28857422 C-89.46287969 259.35476888 -94.20103516 262.54884594 -98.9375 265.75 C-99.53981445 266.15395996 -100.14212891 266.55791992 -100.76269531 266.97412109 C-108.89420504 272.43488881 -116.81736874 278.04084867 -124.42138672 284.22192383 C-127.14284737 286.42059262 -129.71119468 288.36394165 -132.9375 289.75 C-130.9703934 287.0577639 -128.9621422 284.39922127 -126.9375 281.75 C-126.28394531 280.8940625 -125.63039063 280.038125 -124.95703125 279.15625 C-111.24123933 261.76792363 -92.74186759 249.43375314 -74.78515625 236.80078125 C-67.03184587 231.21712151 -62.16990067 225.38845522 -60.21875 215.8203125 C-58.19601535 200.93073798 -63.09439309 186.25059653 -68.9375 172.75 C-69.35225586 171.79077637 -69.76701172 170.83155273 -70.19433594 169.84326172 C-77.85205396 152.45621143 -87.23690699 137.17676633 -97.98925781 121.60498047 C-103.74421888 113.17158263 -108.74698724 104.34604225 -113.375 95.25 C-113.8712085 94.27897339 -113.8712085 94.27897339 -114.37744141 93.28833008 C-124.36238773 73.10638168 -120.81201588 45.89137566 -114.05371094 25.11401367 C-111.89186699 19.04708193 -108.78103197 13.8833659 -104.9375 8.75 C-104.26460938 7.80447266 -104.26460938 7.80447266 -103.578125 6.83984375 C-94.35287433 -5.07158285 -79.26028223 -12.84405352 -64.69921875 -15.77734375 C-41.30280266 -18.71708035 -18.92425697 -14.48231332 0 0 Z " fill="#000000" transform="translate(388.9375,149.25)"/>
<path d="M0 0 C6.32346155 3.84850016 8.71943269 8.45980682 10.6875 15.4375 C11.76396119 24.26448173 10.85494395 32.73592497 5.3125 40 C2.54231805 42.8936059 -0.03246946 44.29353197 -3.98046875 44.98046875 C-7.58355885 45.01531488 -9.95212247 43.81700391 -13 42 C-17.96515715 37.03484285 -20.34633376 31.11953673 -20.46826172 24.15161133 C-20.45811035 23.48282959 -20.44795898 22.81404785 -20.4375 22.125 C-20.42992676 21.42463623 -20.42235352 20.72427246 -20.41455078 20.00268555 C-20.20676308 13.45433945 -19.01046011 8.24626639 -14.50390625 3.38671875 C-9.67461457 -0.88858934 -6.18666108 -1.54666527 0 0 Z " fill="#000000" transform="translate(258,31)"/>
<path d="M0 0 C2.36497439 1.86708505 3.66030715 3.32061431 5 6 C5.12855717 7.74837746 5.22877269 9.49890308 5.3125 11.25 C5.72708672 16.4425287 6.78449496 18.9806187 10 23 C11.92570993 28.77712979 11.90187619 34.8099294 9.3125 40.375 C7.03190073 44.39242576 4.1361372 46.9319314 0 49 C-4.94799528 49.48509758 -8.30099785 48.97129689 -12.42578125 46.3203125 C-16.49109995 42.91069036 -18.09658532 38.69704327 -18.9375 33.625 C-19.40431404 27.42910458 -17.40017184 22.10025775 -14 17 C-13.4990628 13.71607834 -13.17517864 10.4350826 -12.85546875 7.12890625 C-11.06299941 0.57288826 -6.32277989 -0.91967708 0 0 Z " fill="#000000" transform="translate(257,139)"/>
<path d="M0 0 C21.33146385 1.88333304 42.85796613 1.17151742 64.25 1 C53.53942454 11.71057546 29.36339828 10.4540328 15.26016235 10.50839233 C-0.37544789 10.46784007 -15.63022954 8.33515673 -31.04017639 5.86355591 C-36.59370828 4.98541556 -42.14291657 4.39552041 -47.75 4 C-34.61662676 -4.75558216 -14.8350387 -1.31797461 0 0 Z " fill="#000000" transform="translate(244.75,109)"/>
<path d="M0 0 C1.64403809 0.00580078 1.64403809 0.00580078 3.32128906 0.01171875 C11.86093315 0.09978154 20.29175733 0.72794503 28.78930664 1.53149414 C35.51694871 2.1450195 42.18180462 2.44235149 48.9375 2.4375 C49.76282227 2.43814453 50.58814453 2.43878906 51.43847656 2.43945312 C57.18952776 2.38791621 62.85047 1.90536758 68.5625 1.25 C68.5625 1.91 68.5625 2.57 68.5625 3.25 C46.19202371 12.79423356 25.96288759 12.58978359 2.3984375 8.2734375 C-5.49998426 6.83807386 -13.45094562 6.01638653 -21.4375 5.25 C-16.50792572 -1.12944906 -7.20821727 -0.06250545 0 0 Z " fill="#000000" transform="translate(229.4375,92.75)"/>
<path d="M0 0 C8.43116628 2.63473946 16.99213114 6.54943533 24 12 C24 12.66 24 13.32 24 14 C24.5775 14.22816406 25.155 14.45632812 25.75 14.69140625 C32.56464909 18.65478723 36.92903796 27.65039244 39.25390625 34.9453125 C42.30610586 47.44175277 42.08885066 59.28693281 41 72 C40.01 71.505 40.01 71.505 39 71 C38.50097656 69.30444336 38.50097656 69.30444336 38.140625 67.08984375 C37.92660034 65.86418701 37.92660034 65.86418701 37.70825195 64.61376953 C37.55702881 63.73060059 37.40580566 62.84743164 37.25 61.9375 C32.80234748 38.27995333 22.09108419 19.20375935 3 4 C2.01 3.34 1.02 2.68 0 2 C0 1.34 0 0.68 0 0 Z " fill="#000000" transform="translate(299,54)"/>
<path d="M0 0 C-0.95519531 0.77601562 -1.91039062 1.55203125 -2.89453125 2.3515625 C-21.46928091 17.73848676 -36.37582996 37.4945092 -38.75 62.3125 C-38.84802067 63.87414741 -38.93733606 65.43653464 -39 67 C-39.66 66.67 -40.32 66.34 -41 66 C-44.46243545 51.48440524 -42.28074677 35.47004497 -34.7890625 22.6640625 C-28.53175931 13.34641888 -12.90223013 -4.30074338 0 0 Z " fill="#000000" transform="translate(217,56)"/>
<path d="M0 0 C0 3 0 3 -1.50390625 4.578125 C-2.18324219 5.12984375 -2.86257813 5.6815625 -3.5625 6.25 C-19.83799356 19.9797661 -33.57078392 39.22663334 -35.8125 60.9375 C-35.89390972 62.29066151 -35.96492542 63.64484562 -36 65 C-36.66 64.67 -37.32 64.34 -38 64 C-40.47128568 50.20863153 -38.64675634 35.88007286 -31.08984375 23.99609375 C-22.73365454 12.22079361 -12.82594628 5.91398099 0 0 Z " fill="#000000" transform="translate(330,160)"/>
<path d="M0 0 C12.05420453 1.79611442 24.34604173 1.1653946 36.5 1 C34.36236473 3.20495349 32.51244237 4.69785347 29.75 6.0625 C29.11578125 6.38347656 28.4815625 6.70445313 27.828125 7.03515625 C21.80831455 9.52994346 16.25514589 10.41658232 9.8125 10.4375 C8.59095215 10.44221313 8.59095215 10.44221313 7.34472656 10.44702148 C-1.59020507 10.27742482 -9.81323291 7.98736845 -18.35351562 5.55126953 C-21.38732889 4.7721123 -24.39070018 4.36164316 -27.5 4 C-21.11578862 -3.80292502 -8.75863925 -1.42086848 0 0 Z " fill="#000000" transform="translate(248.5,79)"/>
<path d="M0 0 C8.12079745 0.58005696 14.03159445 2.5651012 19.6875 8.625 C28.22021279 19.10582073 31.24334799 30.6340091 30 44 C29.34 44.99 28.68 45.98 28 47 C26.92809609 43.82813889 25.89467738 40.65312224 24.921875 37.44921875 C20.68521529 23.84954109 13.68269573 13.0386916 2.4375 4 C1.633125 3.34 0.82875 2.68 0 2 C0 1.34 0 0.68 0 0 Z " fill="#000000" transform="translate(179,175)"/>
</svg>
