<svg xmlns="http://www.w3.org/2000/svg" viewBox="0 0 360 400" fill="none" role="img" aria-labelledby="title desc">
  <title id="title">Regal seated Ganesha</title><desc id="desc">Original four-armed seated Ganesha beneath an ornamental aureole, with crown, blessing hand, modak, and lotus seat.</desc>
  <defs>
    <linearGradient id="gGold" x1="73" y1="34" x2="287" y2="356" gradientUnits="userSpaceOnUse"><stop stop-color="#f7e3a5"/><stop offset=".45" stop-color="#bd9145"/><stop offset="1" stop-color="#86602c"/></linearGradient>
    <linearGradient id="gCloth" x1="110" y1="216" x2="258" y2="358" gradientUnits="userSpaceOnUse"><stop stop-color="#9a344d"/><stop offset="1" stop-color="#51182d"/></linearGradient>
    <radialGradient id="gHalo"><stop stop-color="#fff9e9"/><stop offset="1" stop-color="#f2e1bb" stop-opacity=".12"/></radialGradient>
  </defs>
  <circle cx="180" cy="185" r="148" fill="url(#gHalo)" stroke="url(#gGold)" stroke-width="3"/>
  <circle cx="180" cy="185" r="137" stroke="url(#gGold)" stroke-width="1.5" stroke-dasharray="2 7"/>
  <path d="M180 43c-11 15-17 25-17 36 0 12 7 20 17 25 10-5 17-13 17-25 0-11-6-21-17-36Z" fill="#883048" stroke="url(#gGold)" stroke-width="3"/>
  <path d="m180 51 8 20-8 13-8-13 8-20Z" fill="#f5dfa0"/>
  <!-- Crown and elephant head -->
  <path d="M132 117 121 82l31 17 28-45 28 45 31-17-11 35q-48-20-96 0Z" fill="#8c3048" stroke="url(#gGold)" stroke-width="4" stroke-linejoin="round"/>
  <path d="M139 112q41-17 82 0m-63-13 22-31 22 31" stroke="#eed28b" stroke-width="2.5"/>
  <circle cx="180" cy="94" r="6" fill="#f2d88e" stroke="url(#gGold)" stroke-width="2"/>
  <path d="M133 126q47-29 94 0 19 17 13 55-7 41-36 54h-48q-29-13-36-54-6-38 13-55Z" fill="#f3dfbd" stroke="url(#gGold)" stroke-width="4"/>
  <path d="M133 143Q99 111 77 137q-18 21 2 54 16 25 49 16m99-64q34-32 56-6 18 21-2 54-16 25-49 16Z" fill="#852f47" stroke="url(#gGold)" stroke-width="4"/>
  <path d="M125 153q-23-19-36-2-8 15 10 31 11 10 28 8m108-37q23-19 36-2 8 15-10 31-11 10-28 8" stroke="#edce81" stroke-width="2.5"/>
  <path d="M153 164q10-8 20 0m14 0q10-8 20 0" stroke="#563338" stroke-width="3.5" stroke-linecap="round"/>
  <path d="M180 124v21m-10-11h20" stroke="url(#gGold)" stroke-width="3" stroke-linecap="round"/>
  <path d="M174 174q-5 37 2 59 7 19 27 10 17-8 2-24" fill="#f0d6ae" stroke="url(#gGold)" stroke-width="5" stroke-linecap="round" stroke-linejoin="round"/>
  <path d="M169 201q-11 12-23 5m51 12q16-10 28-3" stroke="url(#gGold)" stroke-width="3" stroke-linecap="round"/>
  <!-- Four arms: blessing, lotus, modak, and ceremonial goad -->
  <path d="M143 218q-33 5-53 30l-23-29q-8-10 2-19 10-7 18 3l18 20 27-31m85 26q33 5 53 30l23-29q8-10-2-19-10-7-18 3l-18 20-27-31" fill="#f1d8b5" stroke="url(#gGold)" stroke-width="5" stroke-linecap="round" stroke-linejoin="round"/>
  <path d="M64 197q-10-13-20-6-9 9 1 18l13 10 16-10m222-12q10-13 20-6 9 9-1 18l-13 10-16-10" fill="#f1d8b5" stroke="url(#gGold)" stroke-width="3"/>
  <path d="M131 226q-28 9-40 37l-33-11q-13-4-11 9 2 10 17 14l41 11 40-26m63-34q28 9 40 37l33-11q13-4 11 9-2 10-17 14l-41 11-40-26" fill="#f1d8b5" stroke="url(#gGold)" stroke-width="5" stroke-linecap="round" stroke-linejoin="round"/>
  <path d="m47 254 14-6m244 6-14-6" stroke="#9d344d" stroke-width="3" stroke-linecap="round"/>
  <path d="M104 250q-11-17-2-27 11-11 23 0 8 9 0 22m130 5q15-28 29-19 10 7 1 17l-16 17" stroke="url(#gGold)" stroke-width="3.5" stroke-linecap="round"/>
  <path d="M92 292q23-24 88-24t88 24l-13 44q-75 25-150 0l-13-44Z" fill="url(#gCloth)" stroke="url(#gGold)" stroke-width="4"/>
  <path d="M107 297q73 20 146 0m-137 17q64 19 128 0m-113 17q49 14 98 0" stroke="#ebcd82" stroke-width="2.5"/>
  <path d="M180 270v66m-11-54 11 9 11-9m-11 22 11 9 11-9" stroke="#f1d895" stroke-width="2.5" stroke-linecap="round" stroke-linejoin="round"/>
  <!-- Crossed legs on a layered lotus pedestal -->
  <path d="M128 325q-43 14-45 35 2 15 41 14l56-18 56 18q39 1 41-14-2-21-45-35-51 25-104 0Z" fill="#f0d5b1" stroke="url(#gGold)" stroke-width="4"/>
  <path d="M112 349q34 12 68-1 34 13 68 1m-178 19q44 18 110 1 66 17 110-1" stroke="#8b3047" stroke-width="3"/>
  <path d="M180 372q-25-31-47-14 11 23 47 26 36-3 47-26-22-17-47 14Z" fill="#ead4d5" stroke="url(#gGold)" stroke-width="3"/>
  <path d="M81 387q99 28 198 0m-172 9q73 19 146 0" stroke="url(#gGold)" stroke-width="3" stroke-linecap="round"/>
  <path d="M294 344q18-13 28 2 8 12-5 21-12 8-24-2" stroke="#79603c" stroke-width="3"/><circle cx="306" cy="355" r="2.5" fill="#9a344d"/>
</svg>
