<?xml version="1.0" encoding="iso-8859-1"?>
<!-- Uploaded to: SVG Repo, www.svgrepo.com, Generator: SVG Repo Mixer Tools -->
<svg version="1.1" id="Layer_1" xmlns="http://www.w3.org/2000/svg" xmlns:xlink="http://www.w3.org/1999/xlink" 
	 viewBox="0 0 511.999 511.999" xml:space="preserve">
<g>
	<path style="fill:#FA004B;" d="M199.568,14.901c-9.378-9.378-24.582-9.378-33.959,0l-5.66,5.66l-5.66-5.66
		c-9.378-9.378-24.582-9.378-33.959,0s-9.378,24.582,0,33.959l39.619,39.619l39.619-39.619
		C208.946,39.483,208.946,24.279,199.568,14.901z"/>
	<path style="fill:#FA004B;" d="M391.669,86.94c-9.378-9.378-24.582-9.378-33.959,0l-5.66,5.66l-5.66-5.66
		c-9.378-9.378-24.582-9.378-33.959,0c-9.378,9.378-9.378,24.582,0,33.959l39.619,39.619l39.619-39.619
		C401.047,111.521,401.047,96.317,391.669,86.94z"/>
</g>
<path style="fill:#FAEDD6;" d="M279.325,239.985c2.733,10.214,4.19,20.948,4.19,32.023c0,68.243-55.323,123.566-123.566,123.566
	S36.383,340.251,36.383,272.008c0-68.244,55.323-123.566,123.566-123.566c48.051,0,89.694,27.426,110.132,67.478l23.839-15.949
	c-25.678-47.656-76.042-80.045-133.972-80.045C75.957,119.928,7.868,188.017,7.868,272.008s68.089,152.081,152.081,152.081
	S312.029,356,312.029,272.008c0-13.856-1.853-27.28-5.325-40.036L279.325,239.985z"/>
<path style="fill:#36C9A3;" d="M207.522,416.058c25.275,52.129,78.703,88.074,140.527,88.074
	c86.202,0,156.083-69.881,156.083-156.083s-69.881-156.083-156.083-156.083s-156.083,69.881-156.083,156.083
	c0,15.279,2.196,30.045,6.288,44l26.094-15.936c-2.039-9.027-3.116-18.421-3.116-28.065c0-70.04,56.778-126.817,126.817-126.817
	s126.817,56.778,126.817,126.817s-56.778,126.817-126.817,126.817c-51.493,0-95.818-30.69-115.682-74.776"/>
<g>
	<path style="fill:#232323;" d="M348.049,184.098c-17.316,0-34.01,2.708-49.691,7.705c-28.61-49.317-81.176-79.744-138.409-79.744
		C71.752,112.06,0,183.812,0,272.008s71.752,159.949,159.949,159.949c15.174,0,29.861-2.124,43.78-6.091
		c13.243,24.525,32.516,45.318,56.113,60.405c26.322,16.831,56.824,25.727,88.207,25.727c90.404,0,163.951-73.548,163.951-163.951
		C512,257.647,438.452,184.098,348.049,184.098z M15.736,272.008c0-79.52,64.693-144.213,144.213-144.213
		c50.706,0,97.339,26.501,123.422,69.611c-3.942,1.699-7.804,3.551-11.581,5.544c-23.871-38.725-65.795-62.376-111.841-62.376
		c-72.472,0-131.433,58.961-131.433,131.434s58.961,131.434,131.433,131.434c72.473,0,131.434-58.961,131.434-131.434
		c0-9.092-0.944-18.128-2.784-26.956c3.8-2.202,7.734-4.194,11.782-5.972c2.506,10.741,3.781,21.792,3.781,32.928
		c0,79.52-64.694,144.213-144.214,144.213S15.736,351.528,15.736,272.008z M258.237,210.956
		c-44.618,29.329-74.14,79.824-74.14,137.093c0,12.232,1.364,24.358,4.026,36.18c-9.023,2.266-18.46,3.477-28.176,3.477
		c-63.796,0-115.697-51.902-115.697-115.698s51.902-115.698,115.697-115.698C200.377,156.31,237.194,177.023,258.237,210.956z
		 M229.099,348.049c0-37.779,17.706-71.497,45.253-93.302c0.851,5.693,1.295,11.463,1.295,17.262
		c0,37.415-17.857,70.733-45.491,91.894C229.458,358.663,229.099,353.362,229.099,348.049z M315.26,233.697
		c10.419-2.992,21.42-4.598,32.789-4.598c65.589,0,118.95,53.36,118.95,118.949s-53.361,118.95-118.95,118.95
		c-42.729,0-81.993-23.04-103.077-59.57c44.977-28.34,74.927-78.444,74.927-135.419C319.898,259.044,318.328,246.178,315.26,233.697
		z M348.049,496.264c-28.373,0-55.944-8.039-79.73-23.248c-20.591-13.167-37.541-31.133-49.464-52.299
		c4.229-1.681,8.365-3.544,12.408-5.566c23.852,41.44,68.352,67.584,116.786,67.584c74.266,0,134.686-60.42,134.686-134.686
		s-60.42-134.685-134.686-134.685s-134.686,60.419-134.686,134.685c0,8.504,0.807,16.988,2.381,25.285
		c-4.058,2.243-8.264,4.249-12.598,6.001c-2.198-10.233-3.312-20.714-3.312-31.285c0-81.726,66.489-148.215,148.215-148.215
		s148.215,66.489,148.215,148.215C496.264,429.775,429.775,496.264,348.049,496.264z"/>
	<path style="fill:#232323;" d="M205.132,9.338L205.132,9.338C199.11,3.316,191.104,0,182.589,0c-8.516,0-16.522,3.316-22.542,9.337
		l-0.098,0.097l-0.096-0.097c-12.429-12.43-32.655-12.43-45.087,0c-12.429,12.43-12.429,32.655,0,45.086l33.724,33.724h-4.742
		v15.736h32.521V88.147h-4.863l33.726-33.724C217.562,41.993,217.562,21.768,205.132,9.338z M194.005,43.296l-34.056,34.056
		l-34.055-34.056c-6.294-6.294-6.294-16.538-0.001-22.832c3.148-3.147,7.282-4.721,11.417-4.721c4.133,0,8.269,1.574,11.416,4.721
		l11.223,11.223l11.224-11.223c3.049-3.05,7.103-4.728,11.416-4.728c4.312,0,8.367,1.68,11.416,4.728
		C200.299,26.76,200.299,37.002,194.005,43.296z"/>
</g>
<g>
	<rect x="183.619" y="88.153" style="fill:#36C9A3;" width="16.785" height="15.736"/>
	<rect x="119.626" y="88.153" style="fill:#36C9A3;" width="16.785" height="15.736"/>
</g>
<path style="fill:#232323;" d="M397.234,81.376L397.234,81.376c-12.43-12.43-32.657-12.43-45.088,0l-0.095,0.097l-0.097-0.097
	c-6.022-6.022-14.027-9.338-22.543-9.338c-8.515,0-16.522,3.316-22.543,9.338c-12.429,12.43-12.429,32.655,0.001,45.086
	l34.073,34.073h-5.212v15.736h32.521v-15.736h-5.089l34.073-34.073C409.663,114.032,409.663,93.806,397.234,81.376z
	 M386.106,115.335l-34.055,34.055l-34.056-34.055c-6.294-6.294-6.294-16.538-0.001-22.832c3.05-3.05,7.104-4.728,11.417-4.728
	s8.367,1.68,11.417,4.729l11.223,11.223l11.222-11.223c6.297-6.294,16.539-6.294,22.833,0
	C392.401,98.798,392.401,109.04,386.106,115.335z"/>
<g>
	<rect x="375.588" y="160.539" style="fill:#FAEDD6;" width="16.785" height="15.736"/>
	<rect x="311.595" y="160.539" style="fill:#FAEDD6;" width="16.785" height="15.736"/>
</g>
</svg>